<svg xmlns="http://www.w3.org/2000/svg" width="9.6" height="9.6" viewBox="0 0 12 12" shape-rendering="geometricPrecision" text-rendering="geometricPrecision" image-rendering="optimizeQuality" fill-rule="evenodd" clip-rule="evenodd"><path d="M0 5c1-4 4-6 8-5 3 1 5 4 4 8-1 3-4 5-7 4-4-1-6-4-5-7z" fill="#2f3e6f"/><path d="M11 2L8 3V0H4v3L2 2C1 2 1 3 0 4h1-1v4h1L0 9c1 0 1 1 2 2l2-2v3h4V9l3 2c0-1 1-2 1-2l-1-1h1V4h-1 1c0-1-1-2-1-2z" fill="#fff"/><path d="M9 8l2 2c0-1 1-1 1-1l-1-1H9zm3-3H7V0H5v5H0v2h5v5h2V7h5V5zM1 10h1l2-2H3l-2 2zm10-7V2L8 4h1l2-1zM3 4L1 3v1h2z" fill="#e53327"/></svg>