<svg xmlns="http://www.w3.org/2000/svg" width="9.6" height="9.6" viewBox="0 0 121 121" shape-rendering="geometricPrecision" text-rendering="geometricPrecision" image-rendering="optimizeQuality" fill-rule="evenodd" clip-rule="evenodd"><path d="M2 46C10 14 43-6 75 2s52 41 44 73-41 52-73 44S-6 78 2 46z" fill="#e73840"/><path d="M4 40h113C111 22 95 7 75 2 45-6 14 11 4 40z" fill="#fff"/><path d="M120 73v-4l1-1V53c-1-1-1-2-1-2v-4s-1 0-1-1v-1c0-1-1-3-2-5H4c-1 2-2 4-2 6-2 8-2 16-1 24v3s0 1 1 1v3s0 1 1 1v2s0 1 1 1h113c1 0 1-1 1-1v-2l1-1v-3h1v-1z" fill="#045791"/></svg>