<svg width="29" height="24" fill="none" xmlns="http://www.w3.org/2000/svg"><path fill-rule="evenodd" clip-rule="evenodd" d="M14.315 7.165c-4.748-.278-8.95-2.555-11.788-6.11A6.056 6.056 0 001.763 4c0 2 1.037 3.777 2.565 4.832a5.304 5.304 0 01-2.62-.722v.056c0 2.832 1.965 5.165 4.585 5.72-.492.111-.983.223-1.474.223a6.61 6.61 0 01-1.092-.112c.71 2.278 2.838 4 5.349 4-1.965 1.61-4.42 2.499-7.095 2.499-.491 0-.928 0-1.364-.056 2.51 1.666 5.512 2.61 8.732 2.61 10.533 0 16.263-8.886 16.263-16.55v-.78c1.092-.778 2.074-1.833 2.838-3a13.086 13.086 0 01-3.274.945c1.2-.722 2.073-1.889 2.51-3.222-1.091.667-2.347 1.111-3.602 1.389A5.803 5.803 0 0019.882 0c-3.166 0-5.73 2.61-5.73 5.832 0 .444.054.889.163 1.333z" fill="#fff"/></svg>