<svg width="22" height="23" fill="none" xmlns="http://www.w3.org/2000/svg"><path fill-rule="evenodd" clip-rule="evenodd" d="M8.464 19.723v.105c0 1.371 1.143 2.496 2.536 2.496s2.536-1.125 2.536-2.496v-.105H20c1.107 0 2-.88 2-1.97a2.01 2.01 0 00-2-2.003h-1.214a1.868 1.868 0 01-.286-.985v-4.394c0-3.41-2.321-6.328-5.679-7.172-.035 0-.107-.035-.107-.105-.035-.07-.035-.106 0-.176.179-.281.286-.633.286-.984C13 .844 12.107 0 11 0S9.036.844 9.036 1.934c0 .351.071.703.25.984.035.07.035.105.035.176-.035.07-.107.105-.142.105C5.82 4.043 3.5 6.961 3.5 10.371v4.394c0 .352-.107.704-.286.985H2.036C.929 15.75 0 16.664 0 17.754c0 1.09.929 1.968 2.036 1.968h6.428zm3.607-17.79c0 .598-.464 1.055-1.071 1.055s-1.071-.457-1.071-1.054c0-.598.464-1.055 1.071-1.055s1.071.457 1.071 1.055z" fill="url(#paint0_linear)"/><defs><linearGradient id="paint0_linear" x1="0" y1="17.705" x2="21.63" y2="17.101" gradientUnits="userSpaceOnUse"><stop stop-color="#FF00A8"/><stop offset="1" stop-color="#FF003D"/></linearGradient></defs></svg>