<svg width="24" height="20" fill="none" xmlns="http://www.w3.org/2000/svg"><path fill-rule="evenodd" clip-rule="evenodd" d="M19.203 4.41l-9.918 8.81-.229 1.214-.228 2.428-1.92-5.44 11.838-7.416s.731-.45.731 0c0 0 .137.045-.274.404zM21.808.23L.875 8.276s-.96.36-.869.944c.046.63.869.899.869.899l4.753 1.573L8.6 19.47c.274.135.549-.09.549-.09l3.519-3.416 5.165 3.865c1.462.63 1.965-.674 1.965-.674L23.545.724c0-1.258-1.737-.494-1.737-.494z" fill="url(#paint0_linear)"/><defs><linearGradient id="paint0_linear" x1="0" y1="15.862" x2="23.142" y2="15.09" gradientUnits="userSpaceOnUse"><stop stop-color="#FF00A8"/><stop offset="1" stop-color="#FF003D"/></linearGradient></defs></svg>