<svg width="25" height="20" fill="none" xmlns="http://www.w3.org/2000/svg"><path fill-rule="evenodd" clip-rule="evenodd" d="M12.304 6.217C8.039 5.976 4.264 4 1.716.916a5.116 5.116 0 00-.687 2.554c0 1.735.932 3.277 2.304 4.193A4.892 4.892 0 01.98 7.036v.048c0 2.458 1.765 4.482 4.118 4.964-.441.097-.882.193-1.323.193a6.13 6.13 0 01-.98-.096c.636 1.976 2.548 3.47 4.803 3.47-1.765 1.397-3.97 2.168-6.373 2.168-.44 0-.833 0-1.225-.048C2.255 19.18 4.951 20 7.843 20c9.46 0 14.608-7.71 14.608-14.361v-.675c.98-.675 1.863-1.59 2.549-2.603a12.07 12.07 0 01-2.941.82c1.078-.627 1.863-1.639 2.255-2.795-.98.578-2.108.963-3.236 1.204A5.298 5.298 0 0017.304 0c-2.843 0-5.147 2.265-5.147 5.06 0 .386.049.771.147 1.157z" fill="url(#paint0_linear)"/><defs><linearGradient id="paint0_linear" x1="0" y1="15.862" x2="24.568" y2="14.992" gradientUnits="userSpaceOnUse"><stop stop-color="#FF00A8"/><stop offset="1" stop-color="#FF003D"/></linearGradient></defs></svg>