<svg width="60" height="60" fill="none" xmlns="http://www.w3.org/2000/svg"><path fill-rule="evenodd" clip-rule="evenodd" d="M60 30c0 16.569-13.431 30-30 30C13.431 60 0 46.569 0 30 0 13.431 13.431 0 30 0c16.569 0 30 13.431 30 30zM35.983 17.88c4.092 1.41 7.085 3.523 6.497 7.453-.426 2.877-2.02 4.27-4.138 4.758 2.907 1.514 4.387 3.836 2.977 7.86-1.749 4.999-5.905 5.42-11.431 4.375L28.547 47.7l-3.241-.808 1.323-5.303c-.84-.209-1.698-.43-2.582-.67l-1.329 5.328-3.237-.808 1.341-5.385c-.302-.077-.607-.157-.913-.237-.46-.12-.926-.241-1.397-.36l-4.218-1.05 1.61-3.71s2.387.635 2.355.587c.918.228 1.325-.37 1.485-.77l2.12-8.496.232.057.11.028a2.69 2.69 0 00-.337-.108l1.512-6.066c.04-.689-.197-1.557-1.51-1.885.05-.034-2.354-.585-2.354-.585l.862-3.462 4.47 1.117-.004.016c.672.167 1.364.326 2.07.486l1.328-5.322 3.24.808-1.302 5.218c.87.198 1.744.399 2.596.611l1.292-5.184 3.241.808-1.327 5.324z" fill="url(#paint0_linear)"/><path fill-rule="evenodd" clip-rule="evenodd" d="M35.903 24.883C35.04 28.371 29.725 26.6 28 26.164L29.521 20c1.725.434 7.279 1.245 6.382 4.883z" fill="url(#paint1_linear)"/><path fill-rule="evenodd" clip-rule="evenodd" d="M34.895 35.68c-.993 3.922-7.716 1.802-9.895 1.27L26.765 30c2.18.534 9.169 1.592 8.13 5.68z" fill="url(#paint2_linear)"/><defs><linearGradient id="paint0_linear" x1="30" y1="0" x2="30" y2="60" gradientUnits="userSpaceOnUse"><stop stop-color="#6FC"/><stop offset="1" stop-color="#0FF"/></linearGradient><linearGradient id="paint1_linear" x1="32" y1="20" x2="32" y2="27" gradientUnits="userSpaceOnUse"><stop stop-color="#6FC"/><stop offset="1" stop-color="#0FF"/></linearGradient><linearGradient id="paint2_linear" x1="30" y1="30" x2="30" y2="38" gradientUnits="userSpaceOnUse"><stop stop-color="#6FC"/><stop offset="1" stop-color="#0FF"/></linearGradient></defs></svg>