<svg width="60" height="60" fill="none" xmlns="http://www.w3.org/2000/svg"><path fill-rule="evenodd" clip-rule="evenodd" d="M30 0C13.431 0 0 13.431 0 30c0 16.569 13.431 30 30 30 16.569 0 30-13.431 30-30C60 13.431 46.569 0 30 0zm-6.596 14.097c1.707-.078 2.252-.097 6.598-.097h-.005c4.346 0 4.89.019 6.596.097 1.704.078 2.867.347 3.887.743a7.819 7.819 0 012.833 1.845 7.853 7.853 0 011.847 2.834c.393 1.018.663 2.18.743 3.884C45.98 25.109 46 25.655 46 30c0 4.346-.02 4.89-.097 6.596-.08 1.703-.35 2.866-.743 3.884a7.854 7.854 0 01-1.847 2.834 7.827 7.827 0 01-2.832 1.846c-1.018.396-2.182.666-3.885.744-1.707.077-2.25.096-6.596.096s-4.89-.019-6.597-.096c-1.703-.078-2.866-.348-3.884-.744a7.833 7.833 0 01-2.834-1.846 7.84 7.84 0 01-1.845-2.835c-.395-1.017-.665-2.18-.743-3.883C14.019 34.889 14 34.346 14 30c0-4.345.02-4.89.096-6.598.077-1.702.347-2.865.744-3.883a7.855 7.855 0 011.846-2.834 7.836 7.836 0 012.835-1.845c1.017-.396 2.18-.665 3.883-.743z" fill="url(#paint0_linear)"/><path fill-rule="evenodd" clip-rule="evenodd" d="M28.566 16.883h1.435c4.272 0 4.779.016 6.466.092 1.56.072 2.407.332 2.97.551.747.29 1.28.637 1.84 1.197s.906 1.093 1.197 1.84c.219.563.48 1.41.55 2.97.077 1.687.094 2.194.094 6.463 0 4.27-.017 4.777-.093 6.464-.072 1.56-.332 2.407-.551 2.97a4.948 4.948 0 01-1.198 1.838c-.56.56-1.091.907-1.839 1.197-.563.22-1.41.48-2.97.551-1.687.077-2.194.093-6.466.093s-4.778-.016-6.465-.093c-1.56-.072-2.407-.333-2.971-.552a4.954 4.954 0 01-1.84-1.196 4.958 4.958 0 01-1.197-1.84c-.22-.563-.48-1.41-.551-2.97-.077-1.686-.092-2.193-.092-6.465 0-4.273.015-4.777.092-6.464.071-1.56.332-2.407.55-2.97.29-.747.638-1.28 1.198-1.84a4.964 4.964 0 011.84-1.198c.564-.22 1.411-.48 2.971-.552 1.476-.066 2.048-.086 5.03-.09v.004zm9.976 2.657a1.92 1.92 0 100 3.84 1.92 1.92 0 000-3.84zM21.785 30a8.216 8.216 0 1116.432 0 8.216 8.216 0 01-16.432 0z" fill="url(#paint1_linear)"/><path fill-rule="evenodd" clip-rule="evenodd" d="M30.002 24.667a5.333 5.333 0 110 10.667 5.333 5.333 0 010-10.667z" fill="url(#paint2_linear)"/><defs><linearGradient id="paint0_linear" x1="30" y1="0" x2="30" y2="60" gradientUnits="userSpaceOnUse"><stop stop-color="#6FC"/><stop offset="1" stop-color="#0FF"/></linearGradient><linearGradient id="paint1_linear" x1="30.001" y1="16.879" x2="30.001" y2="43.109" gradientUnits="userSpaceOnUse"><stop stop-color="#6FC"/><stop offset="1" stop-color="#0FF"/></linearGradient><linearGradient id="paint2_linear" x1="30.002" y1="24.667" x2="30.002" y2="35.334" gradientUnits="userSpaceOnUse"><stop stop-color="#6FC"/><stop offset="1" stop-color="#0FF"/></linearGradient></defs></svg>