<svg width="58" height="59" fill="none" xmlns="http://www.w3.org/2000/svg"><g filter="url(#filter0_d)"><path fill-rule="evenodd" clip-rule="evenodd" d="M28.233 56.6c15.255-.18 27.477-12.986 27.3-28.6C55.356 12.385 42.847-.13 27.593.052 12.343.232.121 13.039.3 28.654c.175 15.614 12.684 28.127 27.933 27.947zm2.823-40.657c4.037.314 7.245 1.546 7.644 5.33.296 2.767-.818 4.444-2.618 5.41 2.99.697 4.878 2.49 4.556 6.559-.4 5.054-4.06 6.452-9.308 6.823l.059 5.304-3.124.037-.058-5.233c-.81.01-1.639.014-2.496.006l.06 5.257-3.12.036-.062-5.313c-.292.002-.586.002-.883.002-.445 0-.895 0-1.349.006l-4.065.048.577-3.826s2.311.009 2.271-.027c.884-.012 1.11-.665 1.162-1.073l-.094-8.384a19.82 19.82 0 01.33-.005 2.453 2.453 0 00-.33-.018l-.069-5.985c-.127-.648-.547-1.395-1.813-1.38.038-.044-2.268.028-2.268.028l-.04-3.415 4.309-.05v.017a99.372 99.372 0 001.988-.052l-.058-5.252 3.122-.037.058 5.15c.834-.027 1.673-.054 2.494-.064l-.058-5.115 3.124-.038.06 5.254zM26.352 36.31c2.559.005 8.15.018 8.107-3.625-.042-3.725-5.412-3.531-8.032-3.437-.293.01-.551.02-.764.023l.079 7.04c.175-.003.38-.002.61-.002zm-.212-10.262c2.135.01 6.79.034 6.754-3.278-.039-3.387-4.514-3.212-6.699-3.127-.246.01-.462.018-.64.02l.071 6.385c.147-.002.32 0 .514 0z" fill="url(#paint0_linear)"/></g><defs><linearGradient id="paint0_linear" x1="5.341" y1="51.346" x2="57.592" y2="36.112" gradientUnits="userSpaceOnUse"><stop stop-color="#0FF"/><stop offset="1" stop-color="#6FC"/></linearGradient><filter id="filter0_d" x=".298" y=".05" width="57.237" height="58.553" filterUnits="userSpaceOnUse" color-interpolation-filters="sRGB"><feFlood flood-opacity="0" result="BackgroundImageFix"/><feColorMatrix in="SourceAlpha" values="0 0 0 0 0 0 0 0 0 0 0 0 0 0 0 0 0 0 127 0"/><feOffset dx="2" dy="2"/><feColorMatrix values="0 0 0 0 0 0 0 0 0 0 0 0 0 0 0 0 0 0 0.3 0"/><feBlend in2="BackgroundImageFix" result="effect1_dropShadow"/><feBlend in="SourceGraphic" in2="effect1_dropShadow" result="shape"/></filter></defs></svg>