<svg width="57" height="59" fill="none" xmlns="http://www.w3.org/2000/svg"><g filter="url(#filter0_d)"><path d="M51.964.008H3.034C1.357.01 0 1.4 0 3.114V53.17c.001 1.714 1.36 3.103 3.036 3.103H29.38V34.514h-7.144v-8.516h7.144V19.73c0-7.268 4.337-11.224 10.675-11.224 3.036 0 5.645.231 6.405.334v7.597h-4.37c-3.449 0-4.116 1.676-4.116 4.136v5.425h8.244l-1.074 8.516h-7.17v21.759h13.99c1.676 0 3.036-1.39 3.036-3.105V3.111C55 1.397 53.64.008 51.964.008z" fill="url(#paint0_linear)"/></g><defs><linearGradient id="paint0_linear" x1="0" y1="44.632" x2="54.077" y2="43.134" gradientUnits="userSpaceOnUse"><stop stop-color="#0FF"/><stop offset="1" stop-color="#6FC"/></linearGradient><filter id="filter0_d" x="0" y=".008" width="57" height="58.264" filterUnits="userSpaceOnUse" color-interpolation-filters="sRGB"><feFlood flood-opacity="0" result="BackgroundImageFix"/><feColorMatrix in="SourceAlpha" values="0 0 0 0 0 0 0 0 0 0 0 0 0 0 0 0 0 0 127 0"/><feOffset dx="2" dy="2"/><feColorMatrix values="0 0 0 0 0 0 0 0 0 0 0 0 0 0 0 0 0 0 0.3 0"/><feBlend in2="BackgroundImageFix" result="effect1_dropShadow"/><feBlend in="SourceGraphic" in2="effect1_dropShadow" result="shape"/></filter></defs></svg>