<svg width="58" height="59" fill="none" xmlns="http://www.w3.org/2000/svg"><g filter="url(#filter0_d)"><path d="M27.607.036C16.3.036 5.562-.994 1.461 9.78-.234 14.231.012 20.011.012 28.287c0 7.263-.227 14.088 1.449 18.503 4.092 10.782 14.917 9.75 26.14 9.75 10.828 0 21.992 1.153 26.144-9.75 1.697-4.495 1.448-10.188 1.448-18.503 0-11.036.594-18.162-4.634-23.51C45.265-.644 38.105.035 27.595.035h.012zm-2.473 5.09c23.587-.038 26.59-2.722 24.933 34.568-.589 13.188-10.399 11.741-22.457 11.741-21.986 0-22.618-.644-22.618-23.16C4.992 5.497 6.736 5.14 25.134 5.12v.007zm17.203 4.69c-1.828 0-3.31 1.518-3.31 3.39 0 1.87 1.482 3.388 3.31 3.388s3.31-1.518 3.31-3.389c0-1.871-1.482-3.389-3.31-3.389zm-14.73 3.963c-7.826 0-14.17 6.497-14.17 14.508 0 8.012 6.344 14.506 14.17 14.506s14.167-6.494 14.167-14.506c0-8.011-6.34-14.508-14.167-14.508zm0 5.091c12.161 0 12.177 18.835 0 18.835-12.158 0-12.176-18.835 0-18.835z" fill="url(#paint0_linear)"/></g><defs><linearGradient id="paint0_linear" x1="-36.022" y1="44.871" x2="18.264" y2="43.37" gradientUnits="userSpaceOnUse"><stop stop-color="#0FF"/><stop offset="1" stop-color="#6FC"/></linearGradient><filter id="filter0_d" x="0" y=".008" width="57.213" height="58.566" filterUnits="userSpaceOnUse" color-interpolation-filters="sRGB"><feFlood flood-opacity="0" result="BackgroundImageFix"/><feColorMatrix in="SourceAlpha" values="0 0 0 0 0 0 0 0 0 0 0 0 0 0 0 0 0 0 127 0"/><feOffset dx="2" dy="2"/><feColorMatrix values="0 0 0 0 0 0 0 0 0 0 0 0 0 0 0 0 0 0 0.3 0"/><feBlend in2="BackgroundImageFix" result="effect1_dropShadow"/><feBlend in="SourceGraphic" in2="effect1_dropShadow" result="shape"/></filter></defs></svg>