<svg width="65" height="59" fill="none" xmlns="http://www.w3.org/2000/svg"><g filter="url(#filter0_d)"><path fill-rule="evenodd" clip-rule="evenodd" d="M51.382 12.415L24.843 37.201l-.611 3.414-.612 6.829-5.137-15.302L50.16 11.277s1.956-1.264 1.956 0c0 0 .367.127-.733 1.138zm6.97-11.76L2.34 23.29S-.228 24.302.016 25.946c.123 1.77 2.324 2.53 2.324 2.53L15.06 32.9l7.949 21.877c.733.38 1.467-.253 1.467-.253l9.417-9.61 13.82 10.875c3.913 1.77 5.258-1.897 5.258-1.897L63 2.046C63-1.495 58.353.655 58.353.655z" fill="url(#paint0_linear)"/></g><defs><linearGradient id="paint0_linear" x1="0" y1="44.632" x2="61.927" y2="42.667" gradientUnits="userSpaceOnUse"><stop stop-color="#0FF"/><stop offset="1" stop-color="#6FC"/></linearGradient><filter id="filter0_d" x="0" y=".008" width="65" height="58.264" filterUnits="userSpaceOnUse" color-interpolation-filters="sRGB"><feFlood flood-opacity="0" result="BackgroundImageFix"/><feColorMatrix in="SourceAlpha" values="0 0 0 0 0 0 0 0 0 0 0 0 0 0 0 0 0 0 127 0"/><feOffset dx="2" dy="2"/><feColorMatrix values="0 0 0 0 0 0 0 0 0 0 0 0 0 0 0 0 0 0 0.3 0"/><feBlend in2="BackgroundImageFix" result="effect1_dropShadow"/><feBlend in="SourceGraphic" in2="effect1_dropShadow" result="shape"/></filter></defs></svg>