<svg width="65" height="55" fill="none" xmlns="http://www.w3.org/2000/svg"><g filter="url(#filter0_d)"><path fill-rule="evenodd" clip-rule="evenodd" d="M31.006 16.226c-10.747-.629-20.259-5.783-26.682-13.83a13.709 13.709 0 00-1.73 6.664c0 4.526 2.347 8.549 5.806 10.937-2.1 0-4.2-.628-5.93-1.634v.126c0 6.411 4.448 11.691 10.377 12.948-1.112.252-2.223.503-3.335.503-.865 0-1.73-.125-2.47-.251 1.605 5.154 6.423 9.051 12.105 9.051-4.447 3.646-10.006 5.658-16.059 5.658-1.112 0-2.1 0-3.088-.126 5.682 3.772 12.476 5.909 19.765 5.909 23.84 0 36.812-20.115 36.812-37.464v-1.76c2.47-1.76 4.694-4.149 6.423-6.789-2.347 1.006-4.818 1.76-7.412 2.138 2.718-1.635 4.694-4.275 5.683-7.292-2.471 1.509-5.312 2.514-8.153 3.143C50.77 1.643 47.312.008 43.606.008c-7.165 0-12.97 5.909-12.97 13.2 0 1.006.123 2.012.37 3.018z" fill="url(#paint0_linear)"/></g><defs><linearGradient id="paint0_linear" x1="0" y1="41.386" x2="61.917" y2="39.268" gradientUnits="userSpaceOnUse"><stop stop-color="#0FF"/><stop offset="1" stop-color="#6FC"/></linearGradient><filter id="filter0_d" x="0" y=".008" width="65" height="54.172" filterUnits="userSpaceOnUse" color-interpolation-filters="sRGB"><feFlood flood-opacity="0" result="BackgroundImageFix"/><feColorMatrix in="SourceAlpha" values="0 0 0 0 0 0 0 0 0 0 0 0 0 0 0 0 0 0 127 0"/><feOffset dx="2" dy="2"/><feColorMatrix values="0 0 0 0 0 0 0 0 0 0 0 0 0 0 0 0 0 0 0.3 0"/><feBlend in2="BackgroundImageFix" result="effect1_dropShadow"/><feBlend in="SourceGraphic" in2="effect1_dropShadow" result="shape"/></filter></defs></svg>