<svg width="591" height="1035" fill="none" xmlns="http://www.w3.org/2000/svg"><path fill-rule="evenodd" clip-rule="evenodd" d="M591 1033.23v8.46h-6.653V926.079l-.084-15.344V755.144H386.87v-73.898l-.084-15.343V359.531l-.084-15.261v-29.194l-1.432-1.493-15.579-15.26-15.495-15.344-15.579-15.26-15.495-15.344-15.58-15.261-.252-.331V206.51l-.084-15.343V12.934c-3.2-.83-5.811-2.82-7.495-5.557-1.095-1.825-1.685-3.898-1.685-6.22 0-3.567 1.601-6.884 4.127-9.124 2.189-1.99 5.137-3.151 8.337-3.151s6.147 1.16 8.337 3.151c2.526 2.24 4.21 5.474 4.21 9.123 0 2.24-.673 4.396-1.768 6.138a12.324 12.324 0 01-7.411 5.64v221.195l3.116 2.985 15.495 15.261 15.579 15.344 15.495 15.26 15.58 15.344 14.231 14.016v31.848l.085 15.344v306.372l.084 15.343v67.429l197.393-.083v269.378l.084 15.26z" fill="url(#paint0_linear)"/><path fill-rule="evenodd" clip-rule="evenodd" d="M563.884 1032.82v8.87h-6.653V785.168H359.754V476.224l-.084-10.781V328.512l-2.358-2.322-10.863-10.699-10.78-10.699-10.863-10.699-10.863-10.616-10.864-10.699-10.863-10.699-10.779-10.699-1.263-1.161V67.756a12.345 12.345 0 01-8.927-9.206 12.718 12.718 0 01-.252-2.571c0-6.801 5.557-12.275 12.463-12.275 6.905 0 12.463 5.474 12.463 12.275 0 .829-.084 1.659-.252 2.488-.927 4.478-4.379 8.045-8.927 9.289v12.192l.084 10.699v156.918l3.874 3.815 10.863 10.699 10.864 10.699 10.863 10.616 10.864 10.699 10.863 10.699 10.863 10.699 10.443 10.284v171.847l.084 10.699v270.295H563.8v7.713l.084 10.699v235.792z" fill="url(#paint1_linear)"/><path fill-rule="evenodd" clip-rule="evenodd" d="M257.099 1034.48v7.3h-6.568v-35.58l-.085-9.374V890.914h69.896v-6.22l-.084-9.372V583.796l-9.432-9.289-9.6-9.455-9.684-9.455-9.6-9.538-9.6-9.455-9.685-9.455-9.6-9.538-9.684-9.455-2.611-2.654-.084-6.801V281.653c-4.211-1.161-7.579-4.395-8.758-8.459-.253-1.079-.421-2.157-.421-3.318 0-2.239.589-4.313 1.684-6.137 2.105-3.65 6.147-6.138 10.779-6.138 4.716 0 8.842 2.571 10.948 6.387a11.653 11.653 0 011.6 5.888c0 1.244-.253 2.405-.506 3.483a12.38 12.38 0 01-8.673 8.294v221.195l5.558 5.391 9.6 9.455 9.684 9.538 9.6 9.455 9.6 9.455 9.685 9.538 9.6 9.455 9.684 9.455 6.485 6.469v59.383l.084 9.372v247.652h-69.812v137.014z" fill="url(#paint2_linear)"/><path fill-rule="evenodd" clip-rule="evenodd" d="M230.067 1031.24v10.54h-6.652V864.54l69.811-.083V752.408l-.084-10.782V597.231l-5.642-5.639-10.863-10.617-10.864-10.698-10.779-10.699-10.863-10.699-10.864-10.616-10.863-10.699-8.758-8.626V336.475c-1.432-.415-2.695-.995-3.874-1.825-3.2-2.156-5.305-5.805-5.305-9.952v-.747c.253-4.81 3.453-8.957 7.832-10.699a12.453 12.453 0 014.631-.912c1.6 0 3.116.332 4.548.912 4.379 1.659 7.579 5.806 7.916 10.616v.83c0 4.064-2.021 7.713-5.221 9.952-1.179.83-2.527 1.41-3.958 1.825v19.573l.084 10.782v149.371l.589.664 10.864 10.699 10.863 10.616 10.863 10.699 10.864 10.699 10.863 10.699 10.779 10.616 10.864 10.699 2.947 2.902v168.613l.084 10.699v97.203h-69.812v160.231z" fill="url(#paint3_linear)"/><path fill-rule="evenodd" clip-rule="evenodd" d="M199.835 1033.82v7.96h-6.653V833.687h69.812V681.413l-.084-15.343v-57.974l-3.284-3.317-15.579-15.261-15.496-15.26-15.579-15.344-15.495-15.26-14.063-13.768V347.423c-2.021-.581-3.79-1.576-5.221-2.903-2.442-2.239-3.958-5.391-3.958-8.957 0-2.322.673-4.479 1.852-6.386 2.19-3.484 6.148-5.889 10.611-5.889 4.548 0 8.506 2.322 10.695 5.889 1.179 1.824 1.853 4.064 1.853 6.386 0 3.566-1.516 6.718-3.958 8.957a14.056 14.056 0 01-5.221 2.903v179.726l1.179 1.161 15.579 15.261 15.495 15.343 15.579 15.261 15.495 15.343 15.579 15.261.59.58v106.658l.084 15.344v112.878h-69.896l.084 9.704v183.877z" fill="url(#paint4_linear)"/><path fill-rule="evenodd" clip-rule="evenodd" d="M488.093 1041.11l.674.67h-9.432l-.674-.67-10.779-10.69-10.863-10.7-7.664-7.55v-67.429l-.084-10.699v-35.249h65.938c1.011-3.483 3.537-6.386 6.737-7.879a12.423 12.423 0 015.305-1.161c1.853 0 3.537.415 5.137 1.161 4.211 1.825 7.158 5.889 7.327 10.616v.498c0 4.312-2.19 8.045-5.558 10.284a12.5 12.5 0 01-6.906 2.073c-2.526 0-4.884-.746-6.821-2.073-2.526-1.576-4.379-4.064-5.221-6.967h-59.285v104.175l10.442 10.2 10.864 10.7 10.863 10.69z" fill="url(#paint5_linear)"/><path fill-rule="evenodd" clip-rule="evenodd" d="M442.366 1036.14l5.642 5.64h-9.347l-5.811-5.72-9.6-9.46-1.011-1V860.891h44.296a14.205 14.205 0 011.347-3.069c2.19-3.566 6.148-5.972 10.611-5.972 4.632 0 8.674 2.488 10.863 6.138 1.011 1.824 1.685 3.981 1.685 6.22a10.8 10.8 0 01-.506 3.235c-1.431 5.225-6.231 9.04-12.042 9.04-5.726 0-10.527-3.815-11.958-9.04h-37.643v155.507l3.79 3.73 9.684 9.46z" fill="url(#paint6_linear)"/><path fill-rule="evenodd" clip-rule="evenodd" d="M388.807 806.235c1.853-1.162 4.127-1.825 6.485-1.825 2.105 0 4.042.498 5.81 1.41a12.52 12.52 0 016.737 10.948c-.084 5.308-3.453 9.786-8.253 11.445-.337.083-.589.249-.926.332v205.275l6.569 6.46 1.515 1.5h-9.347l-1.263-1.25-4.127-3.98V828.545l-.168-.083c-4.969-1.41-8.59-5.64-9.011-10.865v-.829c0-4.479 2.358-8.377 5.979-10.533z" fill="url(#paint7_linear)"/><path fill-rule="evenodd" clip-rule="evenodd" d="M296.511 999.148c.757-5.972 5.979-10.616 12.379-10.616 5.979 0 11.031 4.23 12.21 9.786.169.83.253 1.659.253 2.492 0 3.48-1.516 6.63-3.874 8.87a13.7 13.7 0 01-5.305 2.9v29.2h-6.653v-29.2a13.485 13.485 0 01-4.631-2.4c-2.779-2.24-4.548-5.56-4.548-9.37 0-.58.084-1.082.169-1.662z" fill="url(#paint8_linear)"/><path fill-rule="evenodd" clip-rule="evenodd" d="M272.51 932.964v-3.318h76.464v45.45l.085 11.196v55.488h-6.653v-55.322l-.084-11.113v-39.147h-63.159v105.582h-6.653V932.964z" fill="url(#paint9_linear)"/><path fill-rule="evenodd" clip-rule="evenodd" d="M170.108 1033.81v7.97l-6.652.08V897.548l-1.601-1.576-15.495-15.26-15.579-15.344-15.495-15.26-15.579-15.344-15.495-15.26-.253-.249V705.879h127.076c1.432-5.225 6.232-9.04 11.958-9.04 6.906 0 12.548 5.474 12.548 12.275 0 .995-.168 1.99-.421 2.985-1.347 5.308-6.232 9.289-12.127 9.289-5.726 0-10.526-3.815-11.958-9.04l-120.507.083.084 15.178v88.909l2.948 2.986 15.579 15.26 15.495 15.344 15.579 15.26 15.495 15.344 14.4 14.099v138.999z" fill="url(#paint10_linear)"/><path fill-rule="evenodd" clip-rule="evenodd" d="M143.076 1033.9v7.96h-6.652v-69.253l-.085-15.344v-46.362l-15.073-14.846-15.58-15.343-15.495-15.261-15.579-15.26-15.495-15.344-2.274-2.156V667.976h105.518c.168-.58.337-1.161.589-1.741 1.937-4.313 6.316-7.299 11.369-7.299s9.432 2.986 11.369 7.216c.758 1.576 1.094 3.234 1.094 5.059 0 4.313-2.189 8.128-5.642 10.284a12.63 12.63 0 01-6.821 1.991c-2.526 0-4.8-.664-6.737-1.991-2.526-1.576-4.379-4.064-5.221-6.967H63.496v155.426l4.969 4.893 15.579 15.344 15.495 15.26 15.579 15.261 15.495 15.343 12.379 12.192v79.703l.084 15.26v30.69z" fill="url(#paint11_linear)"/><path fill-rule="evenodd" clip-rule="evenodd" d="M112.844 1041.78v.08h-6.653V921.849l-1.6-1.493-9.6-9.538-9.6-9.455-9.684-9.455-9.6-9.538-9.685-9.454-9.6-9.455-9.6-9.538-9.684-9.455-.843-.829v-46.114l-.084-9.455V554.849a11.487 11.487 0 01-3.705-1.659c-3.116-2.156-5.221-5.556-5.474-9.455v-.663c0-3.4 1.432-6.469 3.706-8.708 2.189-2.24 5.305-3.567 8.757-3.567 3.537 0 6.737 1.41 9.011 3.732 2.19 2.157 3.537 5.225 3.537 8.543 0 .249-.084.581-.084.829-.253 3.981-2.442 7.382-5.558 9.372-1.095.664-2.274 1.244-3.537 1.576V806.98l.084 9.372v24.55l3.706 3.649 9.6 9.455 9.684 9.538 9.6 9.455 9.6 9.537 9.685 9.455 9.6 9.455 9.6 9.455 8.337 8.211v57.642l.084 9.455v55.571z" fill="url(#paint12_linear)"/><path fill-rule="evenodd" clip-rule="evenodd" d="M57.517 962.323c1.179-5.557 6.231-9.787 12.21-9.87 5.811 0 10.611 3.898 12.043 9.123.337.995.42 2.074.42 3.235 0 3.068-1.094 5.888-3.03 7.962a12.607 12.607 0 01-6.064 3.815v65.272h-6.653v-65.272c-2.105-.581-4.042-1.659-5.558-3.152-2.19-2.239-3.621-5.225-3.621-8.625 0-.83.084-1.659.253-2.488z" fill="url(#paint13_linear)"/><path fill-rule="evenodd" clip-rule="evenodd" d="M46.064 1031.91v9.95H39.41v-63.53l-.084-10.699V935.7l-.758-.249c-4.632-1.576-8-5.723-8.337-10.699 0-.249-.084-.581-.084-.83 0-4.064 2.02-7.63 5.137-9.869 2.02-1.493 4.631-2.405 7.41-2.405 2.78 0 5.306.829 7.327 2.322 3.116 2.239 5.137 5.888 5.137 9.952v.747c-.337 4.976-3.706 9.123-8.253 10.782-.337.083-.59.166-.926.249v85.51l.084 10.7z" fill="url(#paint14_linear)"/><path fill-rule="evenodd" clip-rule="evenodd" d="M15.832 1031.99v9.87H9.179V906.34c-2.021-.581-3.79-1.576-5.221-2.903C1.516 901.197 0 898.046 0 894.479c0-.58 0-1.161.084-1.741.842-5.972 6.063-10.533 12.38-10.533 6.231 0 11.452 4.561 12.294 10.45.085.58.169 1.244.169 1.824 0 3.567-1.516 6.636-3.874 8.875-1.516 1.41-3.284 2.405-5.305 2.903v82.854l.084 10.782v32.097z" fill="url(#paint15_linear)"/><defs><linearGradient id="paint0_linear" x1="591" y1="515.288" x2="298.026" y2="515.288" gradientUnits="userSpaceOnUse"><stop stop-color="#FF5C00"/><stop offset="1" stop-color="#6B001A" stop-opacity="0"/></linearGradient><linearGradient id="paint1_linear" x1="563.884" y1="542.699" x2="270.995" y2="542.699" gradientUnits="userSpaceOnUse"><stop stop-color="#FF5C00"/><stop offset="1" stop-color="#6B001A" stop-opacity="0"/></linearGradient><linearGradient id="paint2_linear" x1="326.911" y1="649.69" x2="231.499" y2="649.69" gradientUnits="userSpaceOnUse"><stop stop-color="#FF5C00"/><stop offset="1" stop-color="#6B001A" stop-opacity="0"/></linearGradient><linearGradient id="paint3_linear" x1="299.879" y1="677.059" x2="204.467" y2="677.059" gradientUnits="userSpaceOnUse"><stop stop-color="#FF5C00"/><stop offset="1" stop-color="#6B001A" stop-opacity="0"/></linearGradient><linearGradient id="paint4_linear" x1="269.647" y1="682.533" x2="174.235" y2="682.533" gradientUnits="userSpaceOnUse"><stop stop-color="#FF5C00"/><stop offset="1" stop-color="#6B001A" stop-opacity="0"/></linearGradient><linearGradient id="paint5_linear" x1="539.715" y1="965.765" x2="449.271" y2="965.765" gradientUnits="userSpaceOnUse"><stop stop-color="#FF5C00"/><stop offset="1" stop-color="#6B001A" stop-opacity="0"/></linearGradient><linearGradient id="paint6_linear" x1="491.041" y1="946.814" x2="422.239" y2="946.814" gradientUnits="userSpaceOnUse"><stop stop-color="#FF5C00"/><stop offset="1" stop-color="#6B001A" stop-opacity="0"/></linearGradient><linearGradient id="paint7_linear" x1="407.839" y1="923.094" x2="382.828" y2="923.094" gradientUnits="userSpaceOnUse"><stop stop-color="#FF5C00"/><stop offset="1" stop-color="#6B001A" stop-opacity="0"/></linearGradient><linearGradient id="paint8_linear" x1="321.353" y1="1015.15" x2="296.342" y2="1015.15" gradientUnits="userSpaceOnUse"><stop stop-color="#FF5C00"/><stop offset="1" stop-color="#6B001A" stop-opacity="0"/></linearGradient><linearGradient id="paint9_linear" x1="349.059" y1="985.712" x2="272.51" y2="985.712" gradientUnits="userSpaceOnUse"><stop stop-color="#FF5C00"/><stop offset="1" stop-color="#6B001A" stop-opacity="0"/></linearGradient><linearGradient id="paint10_linear" x1="235.541" y1="869.349" x2="83.959" y2="869.349" gradientUnits="userSpaceOnUse"><stop stop-color="#FF5C00"/><stop offset="1" stop-color="#6B001A" stop-opacity="0"/></linearGradient><linearGradient id="paint11_linear" x1="186.782" y1="850.398" x2="56.843" y2="850.398" gradientUnits="userSpaceOnUse"><stop stop-color="#FF5C00"/><stop offset="1" stop-color="#6B001A" stop-opacity="0"/></linearGradient><linearGradient id="paint12_linear" x1="112.844" y1="786.329" x2="17.432" y2="786.329" gradientUnits="userSpaceOnUse"><stop stop-color="#FF5C00"/><stop offset="1" stop-color="#6B001A" stop-opacity="0"/></linearGradient><linearGradient id="paint13_linear" x1="82.191" y1="997.156" x2="57.264" y2="997.156" gradientUnits="userSpaceOnUse"><stop stop-color="#FF5C00"/><stop offset="1" stop-color="#6B001A" stop-opacity="0"/></linearGradient><linearGradient id="paint14_linear" x1="55.159" y1="976.754" x2="30.148" y2="976.754" gradientUnits="userSpaceOnUse"><stop stop-color="#FF5C00"/><stop offset="1" stop-color="#6B001A" stop-opacity="0"/></linearGradient><linearGradient id="paint15_linear" x1="24.927" y1="962.032" x2="0" y2="962.032" gradientUnits="userSpaceOnUse"><stop stop-color="#FF5C00"/><stop offset="1" stop-color="#6B001A" stop-opacity="0"/></linearGradient></defs></svg>