<svg width="154" height="25" fill="none" xmlns="http://www.w3.org/2000/svg"><path fill-rule="evenodd" clip-rule="evenodd" d="M9.514 15.978H0V9.519h130.632c.56-1.962 1.519-3.678 2.799-5.068 2.158-2.371 5.196-3.843 8.634-3.843.559 0 1.119 0 1.679.082 5.756.818 10.153 5.886 10.153 12.018 0 6.05-4.397 11.118-10.073 11.935-.56.082-1.2.164-1.759.164-3.438 0-6.396-1.472-8.554-3.76-1.36-1.472-2.319-3.19-2.799-5.151H50.846l-10.393.082H9.514z" fill="url(#paint0_linear)"/><defs><linearGradient id="paint0_linear" x1="76.948" y1="24.807" x2="76.948" y2=".608" gradientUnits="userSpaceOnUse"><stop stop-color="#FF03C8"/><stop offset="1" stop-color="red" stop-opacity="0"/></linearGradient></defs></svg>