<svg width="1015" height="575" fill="none" xmlns="http://www.w3.org/2000/svg"><path fill-rule="evenodd" clip-rule="evenodd" d="M8.315 574.334H.16v-6.458h111.445l14.791-.082h149.979V376.171h71.232l14.79-.082H657.72l14.71-.082h28.141l1.439-1.39 14.71-15.124 14.79-15.042 14.71-15.124 14.79-15.042 14.71-15.123.32-.246h29.181l14.79-.081h171.805c.799-3.107 2.718-5.641 5.356-7.276 1.759-1.063 3.758-1.635 5.998-1.635 3.44 0 6.63 1.553 8.79 4.005 1.92 2.126 3.04 4.987 3.04 8.094 0 3.106-1.12 5.968-3.04 8.093-2.16 2.453-5.27 4.088-8.79 4.088-2.16 0-4.239-.654-5.918-1.717-2.638-1.553-4.637-4.169-5.436-7.194H778.599l-2.879 3.025-14.71 15.042-14.79 15.124-14.71 15.042-14.79 15.124-13.511 13.815H672.51l-14.79.082H362.397l-14.79.082h-64.996l.08 191.623H23.025l-14.71.082z" fill="url(#paint0_linear)"/><path fill-rule="evenodd" clip-rule="evenodd" d="M8.714 548.01H.16v-6.458h247.275V349.847h297.8l10.393-.082H687.62l2.238-2.289 10.313-10.546 10.313-10.464 10.313-10.545 10.234-10.546 10.313-10.546 10.313-10.546 10.313-10.464 1.119-1.226h175.882c1.12-4.333 4.557-7.685 8.874-8.666a12.19 12.19 0 012.479-.245c6.555 0 11.832 5.395 11.832 12.099 0 6.704-5.277 12.099-11.832 12.099-.8 0-1.599-.082-2.399-.245-4.317-.899-7.754-4.251-8.954-8.666h-11.752l-10.313.082H765.647l-3.677 3.761-10.313 10.545-10.313 10.546-10.233 10.546-10.314 10.546-10.313 10.546-10.313 10.545-9.913 10.138H524.609l-10.313.081H253.75v191.624h-7.435l-10.313.081H8.714z" fill="url(#paint1_linear)"/><path fill-rule="evenodd" clip-rule="evenodd" d="M7.115 250.193H.08v-6.377h34.297l9.034-.082h102.091v67.853h5.996l9.034-.081h281.012l8.954-9.156 9.114-9.32 9.114-9.401 9.194-9.32 9.114-9.319 9.114-9.402 9.193-9.319 9.114-9.402 2.559-2.534 6.555-.082h209.22c1.119-4.087 4.237-7.357 8.155-8.502 1.039-.245 2.078-.408 3.197-.408 2.159 0 4.158.572 5.916 1.635 3.518 2.043 5.917 5.967 5.917 10.464 0 4.578-2.479 8.583-6.156 10.627a11.173 11.173 0 01-5.677 1.553c-1.199 0-2.318-.245-3.357-.49a11.981 11.981 0 01-7.995-8.42H519.572l-5.197 5.395-9.114 9.32-9.193 9.401-9.114 9.32-9.114 9.319-9.194 9.402-9.114 9.319-9.114 9.401-6.236 6.295h-57.241l-9.034.082h-238.72v-67.771H7.115z" fill="url(#paint2_linear)"/><path fill-rule="evenodd" clip-rule="evenodd" d="M10.233 223.951H.08v-6.458h170.845l.08 67.771h108.008l10.393-.082h139.187l5.436-5.477 10.233-10.546 10.313-10.546 10.313-10.464 10.314-10.546 10.233-10.545 10.313-10.546 8.314-8.502h175.882c.4-1.39.96-2.616 1.759-3.761 2.079-3.106 5.596-5.15 9.594-5.15h.719c4.637.245 8.634 3.352 10.313 7.603.56 1.389.88 2.943.88 4.496 0 1.553-.32 3.025-.88 4.415-1.599 4.251-5.596 7.357-10.233 7.684h-.799c-3.918 0-7.435-1.962-9.594-5.068-.799-1.145-1.359-2.453-1.759-3.843h-18.867l-10.393.082H506.7l-.639.572-10.313 10.546-10.233 10.546-10.313 10.546-10.314 10.546-10.313 10.545-10.233 10.465-10.313 10.545-2.798 2.862H268.7l-10.313.081H164.69v-67.771H10.233z" fill="url(#paint3_linear)"/><path fill-rule="evenodd" clip-rule="evenodd" d="M7.755 194.603H.08v-6.459h200.585v67.771h146.782l14.79-.081h55.883l3.198-3.189 14.71-15.123 14.71-15.043 14.79-15.123 14.71-15.043 13.271-13.652h175.882c.56-1.962 1.519-3.679 2.799-5.068 2.158-2.371 5.196-3.843 8.634-3.843 2.238 0 4.317.654 6.156 1.799 3.357 2.125 5.676 5.968 5.676 10.3 0 4.415-2.239 8.257-5.676 10.383-1.759 1.144-3.918 1.798-6.156 1.798-3.438 0-6.476-1.471-8.634-3.842a13.653 13.653 0 01-2.799-5.069H496.148l-1.12 1.145-14.71 15.124-14.79 15.042-14.71 15.124-14.79 15.042-14.71 15.124-.56.572H317.947l-14.79.082H194.35v-67.853l-9.354.082H7.755z" fill="url(#paint4_linear)"/><path fill-rule="evenodd" clip-rule="evenodd" d="M.72 474.435l-.64.654v-9.156l.64-.654 10.313-10.465 10.313-10.545 7.275-7.44h64.996l10.313-.081h33.977v64.01c3.358.981 6.156 3.434 7.595 6.54a12.12 12.12 0 011.12 5.151c0 1.798-.4 3.433-1.12 4.986-1.758 4.088-5.676 6.949-10.233 7.113h-.479c-4.158 0-7.755-2.126-9.914-5.396a12.196 12.196 0 01-1.998-6.703c0-2.453.719-4.742 1.998-6.622 1.519-2.453 3.918-4.251 6.716-5.069v-57.552H31.179l-9.833 10.137-10.313 10.546L.719 474.435z" fill="url(#paint5_linear)"/><path fill-rule="evenodd" clip-rule="evenodd" d="M5.516 430.044L.08 435.522v-9.075l5.516-5.64 9.114-9.32.96-.981h158.772v43.001c1.039.327 1.999.736 2.958 1.308 3.438 2.125 5.756 5.968 5.756 10.3 0 4.497-2.398 8.421-5.916 10.546-1.759.981-3.837 1.635-5.996 1.635-1.039 0-2.078-.163-3.118-.49-5.036-1.39-8.714-6.05-8.714-11.691 0-5.559 3.678-10.218 8.714-11.608v-36.543H18.228l-3.598 3.679-9.114 9.401z" fill="url(#paint6_linear)"/><path fill-rule="evenodd" clip-rule="evenodd" d="M227.128 378.051c1.119 1.799 1.759 4.006 1.759 6.295 0 2.044-.48 3.924-1.36 5.641-1.998 3.842-5.916 6.458-10.553 6.54-5.116-.082-9.433-3.352-11.032-8.012-.08-.327-.24-.572-.32-.899H7.755l-6.236 6.376-1.44 1.472v-9.074l1.2-1.227 3.837-4.005h200.506l.08-.164c1.359-4.823 5.436-8.339 10.473-8.747h.799c4.318 0 8.075 2.289 10.154 5.804z" fill="url(#paint7_linear)"/><path fill-rule="evenodd" clip-rule="evenodd" d="M41.172 288.452c5.756.736 10.233 5.804 10.233 12.018 0 5.804-4.077 10.709-9.433 11.853-.8.164-1.6.246-2.399.246-3.357 0-6.395-1.472-8.554-3.761a13.374 13.374 0 01-2.798-5.15H.08V297.2h28.14a13.293 13.293 0 012.318-4.497c2.159-2.698 5.357-4.414 9.034-4.414.56 0 1.04.081 1.6.163z" fill="url(#paint8_linear)"/><path fill-rule="evenodd" clip-rule="evenodd" d="M104.97 265.153h3.197v74.23h-43.81l-10.793.081H.08v-6.458h53.324l10.713-.082h37.735v-61.313H.08v-6.458h104.89z" fill="url(#paint9_linear)"/><path fill-rule="evenodd" clip-rule="evenodd" d="M7.755 165.744H.08L0 159.286h139.107l1.519-1.553 14.71-15.042 14.79-15.124 14.71-15.042 14.79-15.124 14.71-15.042.24-.245h109.287v123.361c5.037 1.39 8.714 6.05 8.714 11.609 0 6.703-5.276 12.181-11.832 12.181-.959 0-1.919-.164-2.878-.409-5.117-1.308-8.954-6.05-8.954-11.772 0-5.559 3.678-10.219 8.714-11.609l-.08-116.985-14.63.082h-85.703l-2.878 2.861-14.71 15.124-14.79 15.042-14.71 15.124-14.79 15.042-13.591 13.979H7.755z" fill="url(#paint10_linear)"/><path fill-rule="evenodd" clip-rule="evenodd" d="M7.675 139.503H0v-6.458h66.755l14.79-.082h44.69l14.311-14.634 14.79-15.123 14.71-15.042 14.71-15.124 14.79-15.042 2.079-2.208h158.773v102.434c.56.163 1.12.327 1.679.572 4.158 1.88 7.036 6.131 7.036 11.036 0 4.905-2.878 9.156-6.956 11.037-1.519.735-3.118 1.062-4.876 1.062-4.158 0-7.835-2.125-9.914-5.477a12.324 12.324 0 01-1.919-6.622c0-2.452.64-4.659 1.919-6.54 1.519-2.452 3.918-4.251 6.716-5.068V62.249h-149.82l-4.717 4.823-14.79 15.124-14.71 15.042-14.71 15.124-14.79 15.042-11.752 12.017H51.966l-14.711.082H7.675z" fill="url(#paint11_linear)"/><path fill-rule="evenodd" clip-rule="evenodd" d="M.08 110.154H0v-6.458h115.682l1.44-1.553 9.193-9.32 9.114-9.32 9.114-9.4 9.194-9.32 9.114-9.402 9.114-9.32 9.194-9.319 9.114-9.401.799-.818h44.45l9.114-.081h224.809c.32-1.308.88-2.535 1.599-3.597 2.079-3.025 5.357-5.069 9.114-5.314h.64c3.278 0 6.236 1.39 8.394 3.597 2.159 2.125 3.438 5.15 3.438 8.502 0 3.433-1.359 6.54-3.598 8.747-2.078 2.126-5.036 3.434-8.234 3.434-.24 0-.56-.082-.8-.082-3.837-.245-7.115-2.37-9.034-5.395-.639-1.063-1.199-2.208-1.519-3.434H226.408l-9.034.082H193.71l-3.517 3.597-9.114 9.32-9.194 9.4-9.114 9.32-9.194 9.32-9.114 9.401-9.114 9.32-9.114 9.319-7.914 8.094H62.758l-9.114.081H.08z" fill="url(#paint12_linear)"/><path fill-rule="evenodd" clip-rule="evenodd" d="M76.669 56.444c5.356 1.145 9.433 6.05 9.513 11.854 0 5.64-3.757 10.3-8.794 11.69-.96.327-1.999.409-3.118.409-2.958 0-5.676-1.063-7.675-2.943a12.242 12.242 0 01-3.677-5.886H0V65.11h62.918c.56-2.044 1.599-3.924 3.038-5.396 2.158-2.125 5.036-3.515 8.314-3.515.8 0 1.6.082 2.399.245z" fill="url(#paint13_linear)"/><path fill-rule="evenodd" clip-rule="evenodd" d="M9.594 45.326H0v-6.459h61.239l10.313-.081h30.779l.24-.736c1.519-4.496 5.517-7.766 10.313-8.093.24 0 .56-.082.8-.082 3.917 0 7.355 1.962 9.513 4.987 1.439 1.962 2.319 4.496 2.319 7.194 0 2.698-.8 5.15-2.239 7.112-2.158 3.025-5.676 4.987-9.593 4.987h-.72c-4.796-.327-8.794-3.597-10.393-8.012-.08-.327-.16-.572-.24-.899H19.907l-10.313.082z" fill="url(#paint14_linear)"/><path fill-rule="evenodd" clip-rule="evenodd" d="M9.514 15.978H0V9.519h130.632c.56-1.962 1.519-3.678 2.799-5.068 2.158-2.37 5.196-3.842 8.634-3.842.559 0 1.119 0 1.679.081 5.756.818 10.153 5.886 10.153 12.018 0 6.05-4.397 11.118-10.073 11.935-.56.082-1.2.164-1.759.164-3.438 0-6.396-1.472-8.554-3.76-1.36-1.472-2.319-3.19-2.799-5.151H50.846l-10.393.082H9.514z" fill="url(#paint15_linear)"/><defs><linearGradient id="paint0_linear" x1="507.58" y1="574.334" x2="507.58" y2="289.924" gradientUnits="userSpaceOnUse"><stop stop-color="#FF03C8"/><stop offset=".469" stop-color="#6FC"/><stop offset="1" stop-color="#FF003D" stop-opacity="0"/></linearGradient><linearGradient id="paint1_linear" x1="481.158" y1="548.01" x2="481.158" y2="263.682" gradientUnits="userSpaceOnUse"><stop stop-color="#FF03C8"/><stop offset=".469" stop-color="#6FC"/><stop offset="1" stop-color="#FF003D" stop-opacity="0"/></linearGradient><linearGradient id="paint2_linear" x1="378.027" y1="317.964" x2="378.027" y2="225.341" gradientUnits="userSpaceOnUse"><stop stop-color="#FF03C8"/><stop offset=".469" stop-color="#6FC"/><stop offset="1" stop-color="#FF003D" stop-opacity="0"/></linearGradient><linearGradient id="paint3_linear" x1="351.644" y1="291.722" x2="351.644" y2="199.099" gradientUnits="userSpaceOnUse"><stop stop-color="#FF03C8"/><stop offset=".469" stop-color="#6FC"/><stop offset="1" stop-color="#FF003D" stop-opacity="0"/></linearGradient><linearGradient id="paint4_linear" x1="346.368" y1="262.374" x2="346.368" y2="169.75" gradientUnits="userSpaceOnUse"><stop stop-color="#FF03C8"/><stop offset=".469" stop-color="#6FC"/><stop offset="1" stop-color="#FF003D" stop-opacity="0"/></linearGradient><linearGradient id="paint5_linear" x1="73.351" y1="524.548" x2="73.351" y2="436.748" gradientUnits="userSpaceOnUse"><stop stop-color="#FF03C8"/><stop offset=".469" stop-color="#6FC"/><stop offset="1" stop-color="#FF003D" stop-opacity="0"/></linearGradient><linearGradient id="paint6_linear" x1="91.618" y1="477.296" x2="91.618" y2="410.506" gradientUnits="userSpaceOnUse"><stop stop-color="#FF03C8"/><stop offset=".469" stop-color="#6FC"/><stop offset="1" stop-color="#FF003D" stop-opacity="0"/></linearGradient><linearGradient id="paint7_linear" x1="114.483" y1="396.527" x2="114.483" y2="372.247" gradientUnits="userSpaceOnUse"><stop stop-color="#FF03C8"/><stop offset=".469" stop-color="#6FC"/><stop offset="1" stop-color="#FF003D" stop-opacity="0"/></linearGradient><linearGradient id="paint8_linear" x1="25.743" y1="312.569" x2="25.743" y2="288.289" gradientUnits="userSpaceOnUse"><stop stop-color="#FF03C8"/><stop offset=".469" stop-color="#6FC"/><stop offset="1" stop-color="#FF003D" stop-opacity="0"/></linearGradient><linearGradient id="paint9_linear" x1="54.124" y1="339.464" x2="54.124" y2="265.153" gradientUnits="userSpaceOnUse"><stop stop-color="#FF03C8"/><stop offset=".469" stop-color="#6FC"/><stop offset="1" stop-color="#FF003D" stop-opacity="0"/></linearGradient><linearGradient id="paint10_linear" x1="166.289" y1="229.265" x2="166.289" y2="82.114" gradientUnits="userSpaceOnUse"><stop stop-color="#FF03C8"/><stop offset=".469" stop-color="#6FC"/><stop offset="1" stop-color="#FF003D" stop-opacity="0"/></linearGradient><linearGradient id="paint11_linear" x1="184.556" y1="181.931" x2="184.556" y2="55.79" gradientUnits="userSpaceOnUse"><stop stop-color="#FF03C8"/><stop offset=".469" stop-color="#6FC"/><stop offset="1" stop-color="#FF003D" stop-opacity="0"/></linearGradient><linearGradient id="paint12_linear" x1="246.315" y1="110.154" x2="246.315" y2="17.531" gradientUnits="userSpaceOnUse"><stop stop-color="#FF03C8"/><stop offset=".469" stop-color="#6FC"/><stop offset="1" stop-color="#FF003D" stop-opacity="0"/></linearGradient><linearGradient id="paint13_linear" x1="43.091" y1="80.397" x2="43.091" y2="56.199" gradientUnits="userSpaceOnUse"><stop stop-color="#FF03C8"/><stop offset=".469" stop-color="#6FC"/><stop offset="1" stop-color="#FF003D" stop-opacity="0"/></linearGradient><linearGradient id="paint14_linear" x1="62.758" y1="54.155" x2="62.758" y2="29.875" gradientUnits="userSpaceOnUse"><stop stop-color="#FF03C8"/><stop offset=".469" stop-color="#6FC"/><stop offset="1" stop-color="#FF003D" stop-opacity="0"/></linearGradient><linearGradient id="paint15_linear" x1="76.948" y1="24.807" x2="76.948" y2=".609" gradientUnits="userSpaceOnUse"><stop stop-color="#FF03C8"/><stop offset=".469" stop-color="#6FC"/><stop offset="1" stop-color="#FF003D" stop-opacity="0"/></linearGradient></defs></svg>