<svg width="60" height="60" fill="none" xmlns="http://www.w3.org/2000/svg"><path fill-rule="evenodd" clip-rule="evenodd" d="M30 60c16.569 0 30-13.431 30-30C60 13.431 46.569 0 30 0 13.431 0 0 13.431 0 30c0 16.569 13.431 30 30 30z" fill="#F7931A"/><path fill-rule="evenodd" clip-rule="evenodd" d="M42.48 25.333c.588-3.93-2.405-6.043-6.497-7.453l1.328-5.324-3.242-.808-1.292 5.184c-.852-.212-1.727-.413-2.596-.611l1.301-5.218-3.239-.808-1.328 5.322a103.31 103.31 0 01-2.07-.486l.004-.017-4.47-1.116-.862 3.462s2.405.551 2.354.585c1.313.328 1.55 1.196 1.51 1.885l-1.512 6.066c.09.023.208.056.337.108-.108-.027-.223-.057-.342-.085l-2.12 8.497c-.16.398-.567.997-1.485.77.032.047-2.356-.589-2.356-.589l-1.609 3.71 4.218 1.052c.785.196 1.553.402 2.31.596l-1.34 5.385 3.236.808 1.329-5.328c.884.24 1.742.462 2.582.67l-1.323 5.303 3.24.808 1.342-5.375c5.526 1.046 9.682.624 11.431-4.375 1.41-4.024-.07-6.346-2.977-7.86 2.117-.488 3.712-1.88 4.138-4.758zm-7.405 10.384c-1.002 4.024-7.778 1.849-9.975 1.303l1.78-7.135c2.197.549 9.241 1.634 8.195 5.832zm1.002-10.442c-.914 3.66-6.554 1.8-8.383 1.345l1.613-6.471c1.83.456 7.722 1.307 6.77 5.126z" fill="#fff"/></svg>