<svg xmlns="http://www.w3.org/2000/svg" width="385" height="385" viewBox="0 0 62 62"><path fill="#FFF" class="qr-bg" d="M0 0h62v62H0z"/><path class="q-sq" d="M2 2h14v14H2V2m2 2v10h10V4H4z"/><path d="M2 18h10v2H2v-2zm0 4h4v6H2v-6zm4 8h4v2h2v4h2v2h2v-2h8v4h-2v-2h-2v2h-2v2h-2v-2h-4v-2H8v2h2v4H8v-2H6v-4H4v6H2V32h4v-2m-2 4v2h2v-2H4m4 0v2h2v-2H8z"/><path class="q-sq" d="M2 46h14v14H2V46m2 2v10h10V48H4z"/><path class="q-sqf" d="M6 6h6v6H6V6zm0 44h6v6H6v-6z"/><path d="M8 22h8v2h-2v2h2v2h-6v-4H8v-2zm4 8h4v2h-4v-2zm10-16h2v2h2v4h-2v-2h-2v2h-4v2h-2v-2h-2v-2h6v-2h2v-2z"/><path class="q-one" d="M14 34h2v2h-2v-2zm0 8h2v2h-2v-2zm2-18h2v2h-2v-2zm2-20h2v2h-2V4z"/><path d="M18 8h6v2h-2v4h-2v2h-2v-4h2v-2h-2V8z"/><path class="q-one" d="M18 22h2v2h-2v-2z"/><path d="M18 26h6v2h-4v2h-2v-4z"/><path class="q-one" d="M18 32h2v2h-2v-2z"/><path d="M18 42h2v2h2v2h-2v2h-2v-6zm6 4h4v2h-2v4h-2v2h-4v6h-2V50h4v-2h2v-2z"/><path class="q-one" d="M20 30h2v2h-2v-2zm0 10h2v2h-2v-2z"/><path d="M22 2h2v4h-2V2zm0 18h2v4h-2v-4zm2 10h4v2h-2v4h-2v-2h-2v-2h2v-2z"/><path class="q-one" d="M22 42h2v2h-2v-2zm0 16h2v2h-2v-2z"/><path d="M24 12h4v4h-2v-2h-2v-2zm2-10h8v2h4V2h6v4h-2V4h-2v2h-6v4h2V8h4v2h-2v2h-6v-2h-2V8h2V6h-2v2h-2v2h-2V6h2V4h-2V2zm0 18h8v2h2v2h-2v2h-2v-2h-2v2h-2v2h-2v-4h2v-2h-2v-2zm0 16h6v2h2v-2h2v6h-2v-2h-4v2h-2v2h-2v-4h2v-2h-2v-2zm8 12h2v6h-2v2h-4v2h-2v2h-2v-4h2v-2h-2v-2h6v-2h2v-2zm-4-34h2v4h-2v-4z"/><path class="q-one" d="M30 26h2v2h-2v-2z"/><path d="M32 30h2v4h-4v-2h2v-2zm-2 12h4v2h-4v-2z"/><path class="q-one" d="M30 48h2v2h-2v-2zm0 10h2v2h-2v-2zm2-12h2v2h-2v-2z"/><path d="M34 14h2v4h-2v-4zm2 12h4v2h-2v2h-4v-2h2v-2zm14 6h4v4h-2v2h2v4h-2v2h2v2h-2v2h2v2h-2v8h4v2h-8v-2h2v-2h-2v2h-6v2h-2v-2h-2v-2h-2v-2h2v-2h2v4h6v-2h2v-2h-2v2h-4v-4h-2v-2h2v-2h-4v2h-2v-2h-2v-2h2v-2h2v2h4v-2h4v-2h2v2h2v-2h-2v-6h2v-2m-6 12v6h6v-6h-6zm-8-24h8v2h-8v-2z"/><path class="q-one" d="M36 34h2v2h-2v-2z"/><path d="M38 12h2v4h-2v-4z"/><path class="q-one" d="M38 30h2v2h-2v-2zm0 10h2v2h-2v-2zm2-34h2v2h-2V6z"/><path d="M42 8h2v10h-4v-2h2V8zm2 14h2v4h-6v-2h4v-2z"/><path class="q-one" d="M40 32h2v2h-2v-2z"/><path d="M40 36h4v2h2v2h-4v-2h-2v-2zm8-12h6v2h-2v4h-2v2h-2v-2h-6v-2h6v-4z"/><path class="q-one" d="M44 18h2v2h-2v-2z"/><path class="q-sq" d="M46 2h14v14H46V2m2 2v10h10V4H48z"/><path d="M48 18h2v2h2v-2h2v4h-8v-2h2v-2z"/><path class="q-one" d="M46 46h2v2h-2v-2z"/><path class="q-sqf" d="M50 6h6v6h-6V6z"/><path d="M54 22h4v6h-4v-2h2v-2h-2v-2z"/><path class="q-one" d="M54 30h2v2h-2v-2zm0 6h2v2h-2v-2z"/><path d="M56 46h2v2h2v2h-2v2h2v2h-2v4h-2v-4h-2v-4h2v-4z"/><path class="q-one" d="M56 18h2v2h-2v-2z"/><path d="M56 32h2v2h2v4h-2v-2h-2v-4z"/><path class="q-one" d="M56 38h2v2h-2v-2zm0 4h2v2h-2v-2zm2-22h2v2h-2v-2zm0 8h2v2h-2v-2zm0 16h2v2h-2v-2z"/></svg>