<svg width="60" height="60" fill="none" xmlns="http://www.w3.org/2000/svg"><path fill-rule="evenodd" clip-rule="evenodd" d="M0 30C0 13.431 13.431 0 30 0c16.569 0 30 13.431 30 30 0 16.569-13.431 30-30 30C13.431 60 0 46.569 0 30z" fill="#fff"/><path d="M30.047 12l-.241.82v23.8l.241.24 11.047-6.53L30.047 12z" fill="#343434"/><path d="M30.047 12L19 30.33l11.047 6.53V12z" fill="#8C8C8C"/><path d="M30.047 38.951l-.136.166v8.478l.136.397 11.054-15.567-11.054 6.526z" fill="#3C3C3B"/><path d="M30.047 47.992v-9.04L19 32.424l11.047 15.567z" fill="#8C8C8C"/><path d="M30.047 36.86l11.047-6.53-11.047-5.021v11.55z" fill="#141414"/><path d="M19 30.33l11.047 6.53V25.309L19 30.329z" fill="#393939"/></svg>