<svg xmlns="http://www.w3.org/2000/svg" width="390" height="390" viewBox="0 0 62 62"><path fill="#FFF" class="qr-bg" d="M0 0h62v62H0z"/><path class="q-sq" d="M2 2h14v14H2V2m2 2v10h10V4H4z"/><path d="M2 18h10v2H8v2H6v-2H2v-2zm0 6h4v4h4v2H6v2H4v-6H2v-2zm0 10h4v4H4v6H2V34z"/><path class="q-sq" d="M2 46h14v14H2V46m2 2v10h10V48H4z"/><path class="q-sqf" d="M6 6h6v6H6V6z"/><path d="M6 38h2v2h2v2H8v2H6v-6z"/><path class="q-sqf" d="M6 50h6v6H6v-6z"/><path d="M22 28h2v6h-2v-2h-2v2h-2v4h2v2h-2v4h-6v-4h2v2h2v-2h-2v-2h2v-2h-4v4h-2v-2H8v-2h2v-2H8v-2h4v-2h4v2h-2v2h2v-2h2v-2h4v-2zm-12-6h2v2h2v2h-4v-4z"/><path class="q-one" d="M12 20h2v2h-2v-2z"/><path d="M14 18h10v2h-2v4h2v-2h4v2h-2v4h-2v-2h-2v2h-8v-2h4v-2h-4v-2h4v-2h-4v-2zm6-16h2v4h2V4h4v2h-2v4h-2V8h-2v2h-4V8h2V6h-2V4h2V2zm-2 10h2v4h-2v-4zm0 32h2v4h-2v-4zm0 6h6v8h4v2h-6v-8h-2v8h-2V50zm2-14h4v2h4v2h-2v2h2v2h2v2h-2v6h-2v-8h-2v-2h-4v-2h2v-2h-2v-2zm2-26h2v6h-2v-6z"/><path class="q-one" d="M22 44h2v2h-2v-2z"/><path d="M26 10h4v2h-4v-2zm0 4h2v2h2v2h-2v2h-2v-6zm0 14h6v2h-6v-2zm0 4h2v4h-2v-4zm2-30h8v2h-2v4h-2V4h-4V2z"/><path class="q-one" d="M28 6h2v2h-2V6zm0 14h2v2h-2v-2z"/><path d="M30 34h2v4h-4v-2h2v-2z"/><path class="q-one" d="M28 40h2v2h-2v-2z"/><path d="M34 8h4v2h-2v2h-2v2h-2v2h-2v-4h2v-2h2V8zm-4 10h4v4h4v2h-4v2h-4v-4h2v-2h-2v-2zm0 28h2v2h2v6h4v2h-4v2h2v2h-4v-2h-2v-2h2v-2h-2v-2h2v-2h-2v-4z"/><path class="q-one" d="M32 30h2v2h-2v-2zm0 12h2v2h-2v-2zm2-28h2v2h-2v-2zm0 14h2v2h-2v-2z"/><path d="M38 28h2v4h-2v2h-4v-2h2v-2h2v-2zm-4 10h2v4h-2v-4zm16 0h2v4h2v4h4v2h-6v10h-4v-2h2v-4h-2v2h-6v-2h-6v-2h6v-6h-2v4h-6v-2h4v-2h-2v-2h2v-2h2v2h4v-2h2v2h4v-4m-6 6v6h6v-6h-6z"/><path class="q-one" d="M36 4h2v2h-2V4zm0 14h2v2h-2v-2zm2-16h2v2h-2V2z"/><path d="M40 4h4v2h-2v2h-4V6h2V4zm-2 6h4v2h-4v-2zm0 4h2v2h2v-2h2v4h2v4h-2v-2h-2v-2h-4v-4z"/><path class="q-one" d="M38 20h2v2h-2v-2zm0 4h2v2h-2v-2z"/><path d="M42 28h4v2h6v2h-6v6h-2v-2h-6v-2h2v-2h2v-4zm-4 28h4v2h-2v2h-2v-4z"/><path class="q-one" d="M40 22h2v2h-2v-2z"/><path d="M40 38h4v2h-4v-2zm4 20h4v2h-4v-2z"/><path class="q-sq" d="M46 2h14v14H46V2m2 2v10h10V4H48z"/><path d="M48 18h2v2h2v4h-2v2h-2v-2h-2v-2h2v-4z"/><path class="q-one" d="M46 38h2v2h-2v-2zm0 8h2v2h-2v-2z"/><path d="M48 34h4v2h-2v2h-2v-4z"/><path class="q-sqf" d="M50 6h6v6h-6V6z"/><path d="M56 18h2v2h2v2h-2v6h-8v-2h6v-8z"/><path class="q-one" d="M52 18h2v2h-2v-2zm0 18h2v2h-2v-2z"/><path d="M54 30h4v4h2v4h-2v-2h-4v-6zm2 20h2v8h-4v-2h2v-2h-2v-2h2v-2zm0-10h2v4h-2v-4z"/><path class="q-one" d="M58 28h2v2h-2v-2zm0 16h2v2h-2v-2zm0 4h2v2h-2v-2z"/></svg>